<?xml version="1.0" standalone="no"?>
<!DOCTYPE svg PUBLIC "-//W3C//DTD SVG 20010904//EN"
 "http://www.w3.org/TR/2001/REC-SVG-20010904/DTD/svg10.dtd">
<svg version="1.0" xmlns="http://www.w3.org/2000/svg"
 width="100.000000pt" height="100.000000pt" viewBox="0 0 100.000000 100.000000"
 preserveAspectRatio="xMidYMid meet">

<g transform="translate(0.000000,100.000000) scale(0.100000,-0.100000)"
fill="#000000" stroke="none">
<path d="M508 810 l-206 -190 -92 70 c-50 39 -99 70 -108 70 -10 0 -38 -21
-62 -46 l-45 -46 88 -83 88 -83 -85 -78 c-47 -43 -86 -82 -86 -86 0 -11 92
-98 104 -98 5 0 51 32 103 71 l93 71 37 -33 c21 -18 111 -100 201 -183 90 -83
172 -155 181 -159 13 -6 51 8 137 51 66 33 125 67 132 75 9 11 12 105 10 378
l-3 364 -120 62 c-66 34 -129 62 -141 63 -13 0 -94 -68 -226 -190z m242 -311
l0 -220 -27 20 c-100 71 -257 197 -255 204 1 9 263 215 275 216 4 1 7 -98 7
-220z"/>
</g>
</svg>
